<?xml version="1.0" encoding="utf-8" standalone="no"?><!DOCTYPE svg PUBLIC "-//W3C//DTD SVG 20010904//EN" "http://www.w3.org/TR/2001/REC-SVG-20010904/DTD/svg10.dtd"><svg xmlns="http://www.w3.org/2000/svg" width="647" height="655" xmlns:xlink="http://www.w3.org/1999/xlink"><source><![CDATA[Browser->Server: GET: serverURL/products
Server->Data Storage: Data Query
Data Storage --> Server: list of products
Server --> Browser: JSON Object
Browser->Server: GET: serverURL/products/id
Server->Data Storage: Data Query by id
Data Storage --> Server: Product
Server --> Browser: JSON Object
Browser->Server: POST: serverURL/products
Server->Data Storage: Add Product
Browser->Server: DELETE: serverURL/products
Server->Data Storage: Delete all data]]></source><desc></desc><defs><marker viewBox="0 0 5 5" markerWidth="5" markerHeight="5" orient="auto" refX="5" refY="2.5" id="markerArrowBlock"><path d="M 0 0 L 5 2.5 L 0 5 z"></path></marker><marker viewBox="0 0 9.6 16" markerWidth="4" markerHeight="16" orient="auto" refX="9.6" refY="8" id="markerArrowOpen"><path d="M 9.6,8 1.92,16 0,13.7 5.76,8 0,2.286 1.92,0 9.6,8 z"></path></marker></defs><g class="title"></g><g class="actor"><path d="M10,20C48.4,16.1 53.3,23.9 107.9,20.0C109.6,48.6 106.2,46.6 107.9,62.5C36.5,66.4 92.2,58.6 10.0,62.5C11.7,42.9 8.3,28.2 10.0,20.0" stroke="#000000" fill="#ffffff" style="stroke-width: 2;"></path><text x="20" y="44" style="font-size: 16px; font-family: danielbd;"><tspan x="20">Browser</tspan></text></g><g class="actor"><path d="M10,592.5C91.3,596.4 25.7,588.6 107.9,592.5C109.6,624.6 106.2,615.5 107.9,635.0C35.5,631.1 33.5,638.9 10.0,635.0C8.3,614.9 11.7,623.7 10.0,592.5" stroke="#000000" fill="#ffffff" style="stroke-width: 2;"></path><text x="20" y="616.5" style="font-size: 16px; font-family: danielbd;"><tspan x="20">Browser</tspan></text></g><path d="M58.9,62.5C80.1,465.3 37.7,507.7 58.9,592.5" stroke="#000000" fill="none" style="stroke-width: 2;"></path><g class="actor"><path d="M334.1015625,20C352.6,16.9 392.8,23.1 411.4,20.0C413.1,42.6 409.7,40.3 411.4,62.5C391.7,59.4 355.6,65.6 334.1,62.5C335.8,35.7 332.4,50.8 334.1,20.0" stroke="#000000" fill="#ffffff" style="stroke-width: 2;"></path><text x="344.1328125" y="44" style="font-size: 16px; font-family: danielbd;"><tspan x="344.1015625">Server</tspan></text></g><g class="actor"><path d="M334.1015625,592.5C376.5,595.6 386.2,589.4 411.4,592.5C413.1,624.8 409.7,611.4 411.4,635.0C392.8,638.1 397.9,631.9 334.1,635.0C335.8,608.3 332.4,624.3 334.1,592.5" stroke="#000000" fill="#ffffff" style="stroke-width: 2;"></path><text x="344.1328125" y="616.5" style="font-size: 16px; font-family: danielbd;"><tspan x="344.1015625">Server</tspan></text></g><path d="M372.7,62.5C393.9,465.3 351.5,253.4 372.7,592.5" stroke="#000000" fill="none" style="stroke-width: 2;"></path><g class="actor"><path d="M482.3984375,20C585.2,25.4 596.0,14.6 617.7,20.0C619.4,52.3 616.0,44.3 617.7,62.5C573.0,67.9 517.8,57.1 482.4,62.5C484.1,55.7 480.7,34.4 482.4,20.0" stroke="#000000" fill="#ffffff" style="stroke-width: 2;"></path><text x="492.3984375" y="44" style="font-size: 16px; font-family: danielbd;"><tspan x="492.3984375">Data Storage</tspan></text></g><g class="actor"><path d="M482.3984375,592.5C596.0,587.1 530.0,597.9 617.7,592.5C616.0,624.8 619.4,628.2 617.7,635.0C563.1,640.4 570.7,629.6 482.4,635.0C480.7,628.2 484.1,614.4 482.4,592.5" stroke="#000000" fill="#ffffff" style="stroke-width: 2;"></path><text x="492.3984375" y="616.5" style="font-size: 16px; font-family: danielbd;"><tspan x="492.3984375">Data Storage</tspan></text></g><path d="M550.0,62.5C528.8,407.3 571.2,147.3 550.0,592.5" stroke="#000000" fill="none" style="stroke-width: 2;"></path><g class="signal"><text x="91.796875" y="90.25" style="font-size: 16px; font-family: danielbd;"><tspan x="91.796875">GET: serverURL/products</tspan></text><path d="M58.9,105.0C267.7,92.4 266.4,117.6 372.7,105.0" stroke="#000000" fill="none" style="stroke-width: 2; marker-end: url(&quot;#markerArrowBlock&quot;);"></path></g><g class="signal"><text x="408.0390625" y="132.75" style="font-size: 16px; font-family: danielbd;"><tspan x="408.0390625">Data Query</tspan></text><path d="M372.7,147.5C520.5,140.4 401.1,154.6 550.0,147.5" stroke="#000000" fill="none" style="stroke-width: 2; marker-end: url(&quot;#markerArrowBlock&quot;);"></path></g><g class="signal"><text x="391.15625" y="175.25" style="font-size: 16px; font-family: danielbd;"><tspan x="391.15625">list of products</tspan></text><path d="M550.0,190.0C433.3,182.9 474.3,197.1 372.7,190.0" stroke="#000000" fill="none" style="stroke-width: 2; stroke-dasharray: 6, 2; marker-end: url(&quot;#markerArrowBlock&quot;);"></path></g><g class="signal"><text x="155.7109375" y="217.75" style="font-size: 16px; font-family: danielbd;"><tspan x="155.7109375">JSON Object</tspan></text><path d="M372.7,232.5C139.4,245.1 322.5,219.9 58.9,232.5" stroke="#000000" fill="none" style="stroke-width: 2; stroke-dasharray: 6, 2; marker-end: url(&quot;#markerArrowBlock&quot;);"></path></g><g class="signal"><text x="77.984375" y="260.25" style="font-size: 16px; font-family: danielbd;"><tspan x="77.984375">GET: serverURL/products/id</tspan></text><path d="M58.9,275.0C297.4,287.6 226.5,262.4 372.7,275.0" stroke="#000000" fill="none" style="stroke-width: 2; marker-end: url(&quot;#markerArrowBlock&quot;);"></path></g><g class="signal"><text x="382.7265625" y="302.75" style="font-size: 16px; font-family: danielbd;"><tspan x="382.7265625">Data Query by id</tspan></text><path d="M372.7,317.5C436.5,324.6 509.9,310.4 550.0,317.5" stroke="#000000" fill="none" style="stroke-width: 2; marker-end: url(&quot;#markerArrowBlock&quot;);"></path></g><g class="signal"><text x="425.3515625" y="345.25" style="font-size: 16px; font-family: danielbd;"><tspan x="425.3515625">Product</tspan></text><path d="M550.0,360.0C432.4,352.9 496.8,367.1 372.7,360.0" stroke="#000000" fill="none" style="stroke-width: 2; stroke-dasharray: 6, 2; marker-end: url(&quot;#markerArrowBlock&quot;);"></path></g><g class="signal"><text x="155.7109375" y="387.75" style="font-size: 16px; font-family: danielbd;"><tspan x="155.7109375">JSON Object</tspan></text><path d="M372.7,402.5C246.5,415.1 221.0,389.9 58.9,402.5" stroke="#000000" fill="none" style="stroke-width: 2; stroke-dasharray: 6, 2; marker-end: url(&quot;#markerArrowBlock&quot;);"></path></g><g class="signal"><text x="89.0390625" y="430.25" style="font-size: 16px; font-family: danielbd;"><tspan x="89.0390625">POST: serverURL/products</tspan></text><path d="M58.9,445.0C322.5,457.6 251.8,432.4 372.7,445.0" stroke="#000000" fill="none" style="stroke-width: 2; marker-end: url(&quot;#markerArrowBlock&quot;);"></path></g><g class="signal"><text x="403.03125" y="472.75" style="font-size: 16px; font-family: danielbd;"><tspan x="403.03125">Add Product</tspan></text><path d="M372.7,487.5C504.1,480.4 427.2,494.6 550.0,487.5" stroke="#000000" fill="none" style="stroke-width: 2; marker-end: url(&quot;#markerArrowBlock&quot;);"></path></g><g class="signal"><text x="68.9296875" y="515.25" style="font-size: 16px; font-family: danielbd;"><tspan x="68.9296875">DELETE: serverURL/products</tspan></text><path d="M58.9,530.0C237.9,542.6 168.5,517.4 372.7,530.0" stroke="#000000" fill="none" style="stroke-width: 2; marker-end: url(&quot;#markerArrowBlock&quot;);"></path></g><g class="signal"><text x="398.2421875" y="557.75" style="font-size: 16px; font-family: danielbd;"><tspan x="398.2421875">Delete all data</tspan></text><path d="M372.7,572.5C401.1,565.4 466.5,579.6 550.0,572.5" stroke="#000000" fill="none" style="stroke-width: 2; marker-end: url(&quot;#markerArrowBlock&quot;);"></path></g></svg>